<svg xmlns="http://www.w3.org/2000/svg" xmlns:xlink="http://www.w3.org/1999/xlink" width="400" zoomAndPan="magnify" viewBox="0 0 300 149.999998" height="200" preserveAspectRatio="xMidYMid meet" version="1.2"><defs><clipPath id="b338b9ce85"><path d="M 36 40.425781 L 73 40.425781 L 73 109.375 L 36 109.375 Z M 36 40.425781 "/></clipPath><clipPath id="6182a04dc4"><path d="M 15 91.566406 L 32.84375 91.566406 L 32.84375 109.410156 L 15 109.410156 Z M 15 91.566406 "/></clipPath></defs><g id="da21a82711"><path style=" stroke:none;fill-rule:nonzero;fill:#51b37f;fill-opacity:1;" d="M 32.609375 60.015625 L 32.609375 88.820312 L 32.601562 88.820312 C 22.902344 88.820312 15.035156 80.953125 15.035156 71.257812 L 15.035156 42.441406 L 15.042969 42.441406 C 24.742188 42.441406 32.609375 50.316406 32.609375 60.015625 Z M 32.609375 60.015625 "/><g clip-rule="nonzero" clip-path="url(#b338b9ce85)"><path style=" stroke:none;fill-rule:nonzero;fill:#51b37f;fill-opacity:1;" d="M 70.628906 109.367188 L 45.382812 95.515625 C 39.359375 92.210938 36.125 85.886719 36.363281 79.460938 L 36.363281 71.5 C 35.652344 64.683594 38.996094 57.78125 45.382812 54.277344 L 70.628906 40.425781 C 75.292969 48.925781 72.183594 59.597656 63.683594 64.265625 L 44.308594 74.898438 L 63.683594 85.53125 C 72.183594 90.195312 75.292969 100.867188 70.628906 109.367188 Z M 70.628906 109.367188 "/></g><g clip-rule="nonzero" clip-path="url(#6182a04dc4)"><path style=" stroke:none;fill-rule:nonzero;fill:#51b37f;fill-opacity:1;" d="M 32.84375 100.488281 C 32.84375 101.074219 32.789062 101.652344 32.675781 102.226562 C 32.558594 102.804688 32.390625 103.359375 32.167969 103.902344 C 31.941406 104.441406 31.667969 104.957031 31.34375 105.445312 C 31.015625 105.933594 30.648438 106.382812 30.230469 106.796875 C 29.816406 107.210938 29.367188 107.582031 28.878906 107.90625 C 28.394531 108.230469 27.878906 108.507812 27.335938 108.730469 C 26.796875 108.957031 26.238281 109.125 25.664062 109.238281 C 25.089844 109.351562 24.507812 109.410156 23.921875 109.410156 C 23.335938 109.410156 22.757812 109.351562 22.183594 109.238281 C 21.609375 109.125 21.050781 108.957031 20.507812 108.730469 C 19.96875 108.507812 19.453125 108.230469 18.964844 107.90625 C 18.476562 107.582031 18.027344 107.210938 17.613281 106.796875 C 17.199219 106.382812 16.828125 105.933594 16.503906 105.445312 C 16.179688 104.957031 15.902344 104.441406 15.679688 103.902344 C 15.453125 103.359375 15.285156 102.804688 15.171875 102.226562 C 15.058594 101.652344 15 101.074219 15 100.488281 C 15 99.902344 15.058594 99.320312 15.171875 98.746094 C 15.285156 98.171875 15.453125 97.613281 15.679688 97.074219 C 15.902344 96.53125 16.179688 96.015625 16.503906 95.53125 C 16.828125 95.042969 17.199219 94.59375 17.613281 94.179688 C 18.027344 93.765625 18.476562 93.394531 18.964844 93.070312 C 19.453125 92.742188 19.96875 92.46875 20.507812 92.242188 C 21.050781 92.019531 21.609375 91.851562 22.183594 91.734375 C 22.757812 91.621094 23.335938 91.566406 23.921875 91.566406 C 24.507812 91.566406 25.089844 91.621094 25.664062 91.734375 C 26.238281 91.851562 26.796875 92.019531 27.335938 92.242188 C 27.878906 92.46875 28.394531 92.742188 28.878906 93.070312 C 29.367188 93.394531 29.816406 93.765625 30.230469 94.179688 C 30.648438 94.59375 31.015625 95.042969 31.34375 95.53125 C 31.667969 96.015625 31.941406 96.53125 32.167969 97.074219 C 32.390625 97.613281 32.558594 98.171875 32.675781 98.746094 C 32.789062 99.320312 32.84375 99.902344 32.84375 100.488281 Z M 32.84375 100.488281 "/></g><g style="fill:#51b37f;fill-opacity:1;"><g transform="translate(72.730942, 87.324357)"><path style="stroke:none" d="M 11.8125 0.296875 C 9.757812 0.296875 7.914062 -0.132812 6.28125 -1 C 4.65625 -1.875 3.375 -3.117188 2.4375 -4.734375 C 1.507812 -6.359375 1.046875 -8.253906 1.046875 -10.421875 C 1.046875 -12.566406 1.519531 -14.453125 2.46875 -16.078125 C 3.414062 -17.710938 4.707031 -18.960938 6.34375 -19.828125 C 7.988281 -20.703125 9.832031 -21.140625 11.875 -21.140625 C 13.914062 -21.140625 15.757812 -20.703125 17.40625 -19.828125 C 19.050781 -18.960938 20.347656 -17.710938 21.296875 -16.078125 C 22.242188 -14.453125 22.71875 -12.566406 22.71875 -10.421875 C 22.71875 -8.273438 22.238281 -6.382812 21.28125 -4.75 C 20.320312 -3.125 19.015625 -1.875 17.359375 -1 C 15.703125 -0.132812 13.851562 0.296875 11.8125 0.296875 Z M 11.8125 -5.234375 C 13.03125 -5.234375 14.066406 -5.679688 14.921875 -6.578125 C 15.785156 -7.472656 16.21875 -8.753906 16.21875 -10.421875 C 16.21875 -12.085938 15.796875 -13.367188 14.953125 -14.265625 C 14.117188 -15.160156 13.09375 -15.609375 11.875 -15.609375 C 10.632812 -15.609375 9.601562 -15.164062 8.78125 -14.28125 C 7.957031 -13.40625 7.546875 -12.117188 7.546875 -10.421875 C 7.546875 -8.753906 7.945312 -7.472656 8.75 -6.578125 C 9.5625 -5.679688 10.582031 -5.234375 11.8125 -5.234375 Z M 11.8125 -5.234375 "/></g></g><g style="fill:#51b37f;fill-opacity:1;"><g transform="translate(96.521376, 87.324357)"><path style="stroke:none" d="M 14.71875 0.265625 C 12.25 0.265625 9.988281 -0.304688 7.9375 -1.453125 C 5.882812 -2.597656 4.253906 -4.195312 3.046875 -6.25 C 1.835938 -8.3125 1.234375 -10.625 1.234375 -13.1875 C 1.234375 -15.75 1.835938 -18.050781 3.046875 -20.09375 C 4.253906 -22.132812 5.882812 -23.726562 7.9375 -24.875 C 9.988281 -26.019531 12.25 -26.59375 14.71875 -26.59375 C 17.1875 -26.59375 19.445312 -26.019531 21.5 -24.875 C 23.550781 -23.726562 25.164062 -22.132812 26.34375 -20.09375 C 27.53125 -18.050781 28.125 -15.75 28.125 -13.1875 C 28.125 -10.625 27.523438 -8.3125 26.328125 -6.25 C 25.140625 -4.195312 23.523438 -2.597656 21.484375 -1.453125 C 19.441406 -0.304688 17.1875 0.265625 14.71875 0.265625 Z M 14.71875 -5.5625 C 16.8125 -5.5625 18.484375 -6.257812 19.734375 -7.65625 C 20.992188 -9.050781 21.625 -10.894531 21.625 -13.1875 C 21.625 -15.5 20.992188 -17.347656 19.734375 -18.734375 C 18.484375 -20.117188 16.8125 -20.8125 14.71875 -20.8125 C 12.601562 -20.8125 10.914062 -20.125 9.65625 -18.75 C 8.394531 -17.382812 7.765625 -15.53125 7.765625 -13.1875 C 7.765625 -10.875 8.394531 -9.023438 9.65625 -7.640625 C 10.914062 -6.253906 12.601562 -5.5625 14.71875 -5.5625 Z M 14.71875 -5.5625 "/></g></g><g style="fill:#000000;fill-opacity:1;"><g transform="translate(125.887189, 87.324357)"><path style="stroke:none" d="M 28.921875 -21.078125 C 31.503906 -21.078125 33.5625 -20.289062 35.09375 -18.71875 C 36.625 -17.144531 37.390625 -14.960938 37.390625 -12.171875 L 37.390625 0 L 31.046875 0 L 31.046875 -11.3125 C 31.046875 -12.664062 30.691406 -13.707031 29.984375 -14.4375 C 29.273438 -15.175781 28.296875 -15.546875 27.046875 -15.546875 C 25.804688 -15.546875 24.828125 -15.175781 24.109375 -14.4375 C 23.398438 -13.707031 23.046875 -12.664062 23.046875 -11.3125 L 23.046875 0 L 16.703125 0 L 16.703125 -11.3125 C 16.703125 -12.664062 16.34375 -13.707031 15.625 -14.4375 C 14.914062 -15.175781 13.941406 -15.546875 12.703125 -15.546875 C 11.453125 -15.546875 10.472656 -15.175781 9.765625 -14.4375 C 9.054688 -13.707031 8.703125 -12.664062 8.703125 -11.3125 L 8.703125 0 L 2.3125 0 L 2.3125 -20.84375 L 8.703125 -20.84375 L 8.703125 -18.234375 C 9.347656 -19.097656 10.191406 -19.785156 11.234375 -20.296875 C 12.285156 -20.816406 13.472656 -21.078125 14.796875 -21.078125 C 16.359375 -21.078125 17.753906 -20.738281 18.984375 -20.0625 C 20.222656 -19.382812 21.191406 -18.425781 21.890625 -17.1875 C 22.609375 -18.332031 23.59375 -19.265625 24.84375 -19.984375 C 26.09375 -20.710938 27.453125 -21.078125 28.921875 -21.078125 Z M 28.921875 -21.078125 "/></g></g><g style="fill:#000000;fill-opacity:1;"><g transform="translate(165.438311, 87.324357)"><path style="stroke:none" d="M 21.96875 -10.765625 C 21.96875 -10.160156 21.929688 -9.535156 21.859375 -8.890625 L 7.390625 -8.890625 C 7.492188 -7.597656 7.910156 -6.609375 8.640625 -5.921875 C 9.378906 -5.234375 10.285156 -4.890625 11.359375 -4.890625 C 12.953125 -4.890625 14.0625 -5.5625 14.6875 -6.90625 L 21.484375 -6.90625 C 21.128906 -5.539062 20.5 -4.304688 19.59375 -3.203125 C 18.6875 -2.109375 17.546875 -1.25 16.171875 -0.625 C 14.804688 -0.0078125 13.273438 0.296875 11.578125 0.296875 C 9.535156 0.296875 7.71875 -0.132812 6.125 -1 C 4.53125 -1.875 3.285156 -3.117188 2.390625 -4.734375 C 1.492188 -6.359375 1.046875 -8.253906 1.046875 -10.421875 C 1.046875 -12.585938 1.488281 -14.476562 2.375 -16.09375 C 3.257812 -17.71875 4.5 -18.960938 6.09375 -19.828125 C 7.6875 -20.703125 9.515625 -21.140625 11.578125 -21.140625 C 13.597656 -21.140625 15.390625 -20.71875 16.953125 -19.875 C 18.523438 -19.03125 19.753906 -17.820312 20.640625 -16.25 C 21.523438 -14.675781 21.96875 -12.847656 21.96875 -10.765625 Z M 15.421875 -12.4375 C 15.421875 -13.53125 15.046875 -14.398438 14.296875 -15.046875 C 13.554688 -15.703125 12.625 -16.03125 11.5 -16.03125 C 10.4375 -16.03125 9.535156 -15.71875 8.796875 -15.09375 C 8.066406 -14.46875 7.613281 -13.582031 7.4375 -12.4375 Z M 15.421875 -12.4375 "/></g></g><g style="fill:#000000;fill-opacity:1;"><g transform="translate(188.444436, 87.324357)"><path style="stroke:none" d="M 8.703125 -17.375 C 9.453125 -18.519531 10.382812 -19.421875 11.5 -20.078125 C 12.625 -20.742188 13.875 -21.078125 15.25 -21.078125 L 15.25 -14.3125 L 13.484375 -14.3125 C 11.890625 -14.3125 10.691406 -13.96875 9.890625 -13.28125 C 9.097656 -12.59375 8.703125 -11.390625 8.703125 -9.671875 L 8.703125 0 L 2.3125 0 L 2.3125 -20.84375 L 8.703125 -20.84375 Z M 8.703125 -17.375 "/></g></g><g style="fill:#000000;fill-opacity:1;"><g transform="translate(204.429211, 87.324357)"><path style="stroke:none" d="M 10.796875 0.296875 C 8.972656 0.296875 7.351562 -0.0078125 5.9375 -0.625 C 4.519531 -1.25 3.398438 -2.101562 2.578125 -3.1875 C 1.753906 -4.269531 1.296875 -5.488281 1.203125 -6.84375 L 7.515625 -6.84375 C 7.585938 -6.113281 7.921875 -5.523438 8.515625 -5.078125 C 9.117188 -4.628906 9.851562 -4.40625 10.71875 -4.40625 C 11.519531 -4.40625 12.132812 -4.5625 12.5625 -4.875 C 13 -5.1875 13.21875 -5.59375 13.21875 -6.09375 C 13.21875 -6.6875 12.90625 -7.125 12.28125 -7.40625 C 11.664062 -7.695312 10.660156 -8.019531 9.265625 -8.375 C 7.773438 -8.71875 6.53125 -9.082031 5.53125 -9.46875 C 4.53125 -9.851562 3.671875 -10.460938 2.953125 -11.296875 C 2.234375 -12.128906 1.875 -13.257812 1.875 -14.6875 C 1.875 -15.875 2.203125 -16.957031 2.859375 -17.9375 C 3.515625 -18.925781 4.484375 -19.707031 5.765625 -20.28125 C 7.054688 -20.851562 8.582031 -21.140625 10.34375 -21.140625 C 12.957031 -21.140625 15.019531 -20.492188 16.53125 -19.203125 C 18.039062 -17.910156 18.90625 -16.191406 19.125 -14.046875 L 13.21875 -14.046875 C 13.125 -14.765625 12.804688 -15.335938 12.265625 -15.765625 C 11.734375 -16.191406 11.03125 -16.40625 10.15625 -16.40625 C 9.414062 -16.40625 8.84375 -16.257812 8.4375 -15.96875 C 8.039062 -15.6875 7.84375 -15.296875 7.84375 -14.796875 C 7.84375 -14.191406 8.160156 -13.738281 8.796875 -13.4375 C 9.429688 -13.144531 10.421875 -12.847656 11.765625 -12.546875 C 13.304688 -12.148438 14.5625 -11.757812 15.53125 -11.375 C 16.507812 -10.988281 17.363281 -10.363281 18.09375 -9.5 C 18.832031 -8.644531 19.210938 -7.492188 19.234375 -6.046875 C 19.234375 -4.828125 18.890625 -3.738281 18.203125 -2.78125 C 17.523438 -1.820312 16.546875 -1.066406 15.265625 -0.515625 C 13.984375 0.0234375 12.492188 0.296875 10.796875 0.296875 Z M 10.796875 0.296875 "/></g></g><g style="fill:#000000;fill-opacity:1;"><g transform="translate(225.269175, 87.324357)"><path style="stroke:none" d="M 23.609375 -20.84375 L 10.53125 9.90625 L 3.65625 9.90625 L 8.4375 -0.703125 L -0.03125 -20.84375 L 7.09375 -20.84375 L 11.921875 -7.8125 L 16.703125 -20.84375 Z M 23.609375 -20.84375 "/></g></g><g style="fill:#000000;fill-opacity:1;"><g transform="translate(248.872865, 87.324357)"><path style="stroke:none" d="M 10.796875 0.296875 C 8.972656 0.296875 7.351562 -0.0078125 5.9375 -0.625 C 4.519531 -1.25 3.398438 -2.101562 2.578125 -3.1875 C 1.753906 -4.269531 1.296875 -5.488281 1.203125 -6.84375 L 7.515625 -6.84375 C 7.585938 -6.113281 7.921875 -5.523438 8.515625 -5.078125 C 9.117188 -4.628906 9.851562 -4.40625 10.71875 -4.40625 C 11.519531 -4.40625 12.132812 -4.5625 12.5625 -4.875 C 13 -5.1875 13.21875 -5.59375 13.21875 -6.09375 C 13.21875 -6.6875 12.90625 -7.125 12.28125 -7.40625 C 11.664062 -7.695312 10.660156 -8.019531 9.265625 -8.375 C 7.773438 -8.71875 6.53125 -9.082031 5.53125 -9.46875 C 4.53125 -9.851562 3.671875 -10.460938 2.953125 -11.296875 C 2.234375 -12.128906 1.875 -13.257812 1.875 -14.6875 C 1.875 -15.875 2.203125 -16.957031 2.859375 -17.9375 C 3.515625 -18.925781 4.484375 -19.707031 5.765625 -20.28125 C 7.054688 -20.851562 8.582031 -21.140625 10.34375 -21.140625 C 12.957031 -21.140625 15.019531 -20.492188 16.53125 -19.203125 C 18.039062 -17.910156 18.90625 -16.191406 19.125 -14.046875 L 13.21875 -14.046875 C 13.125 -14.765625 12.804688 -15.335938 12.265625 -15.765625 C 11.734375 -16.191406 11.03125 -16.40625 10.15625 -16.40625 C 9.414062 -16.40625 8.84375 -16.257812 8.4375 -15.96875 C 8.039062 -15.6875 7.84375 -15.296875 7.84375 -14.796875 C 7.84375 -14.191406 8.160156 -13.738281 8.796875 -13.4375 C 9.429688 -13.144531 10.421875 -12.847656 11.765625 -12.546875 C 13.304688 -12.148438 14.5625 -11.757812 15.53125 -11.375 C 16.507812 -10.988281 17.363281 -10.363281 18.09375 -9.5 C 18.832031 -8.644531 19.210938 -7.492188 19.234375 -6.046875 C 19.234375 -4.828125 18.890625 -3.738281 18.203125 -2.78125 C 17.523438 -1.820312 16.546875 -1.066406 15.265625 -0.515625 C 13.984375 0.0234375 12.492188 0.296875 10.796875 0.296875 Z M 10.796875 0.296875 "/></g></g><path style="fill:none;stroke-width:10;stroke-linecap:round;stroke-linejoin:miter;stroke:#51b37f;stroke-opacity:1;stroke-miterlimit:4;" d="M 4.998714 5.000727 L 60.397483 4.999852 " transform="matrix(0.745518,-0.00153948,0.00153948,0.745518,75.500045,93.43972)"/></g></svg>