<svg xmlns="http://www.w3.org/2000/svg" xmlns:xlink="http://www.w3.org/1999/xlink" width="215" zoomAndPan="magnify" viewBox="0 0 161.25 161.249997" height="215" preserveAspectRatio="xMidYMid meet" version="1.2"><defs><clipPath id="3001ec8c55"><path d="M 24.074219 19 L 57 19 L 57 106 L 24.074219 106 Z M 24.074219 19 "/></clipPath><clipPath id="6469507145"><path d="M 63 16.050781 L 132 16.050781 L 132 144.078125 L 63 144.078125 Z M 63 16.050781 "/></clipPath><clipPath id="00218eb070"><path d="M 24.074219 111.007812 L 57.210938 111.007812 L 57.210938 144.144531 L 24.074219 144.144531 Z M 24.074219 111.007812 "/></clipPath></defs><g id="7a545df464"><g clip-rule="nonzero" clip-path="url(#3001ec8c55)"><path style=" stroke:none;fill-rule:nonzero;fill:#51b37f;fill-opacity:1;" d="M 56.773438 52.429688 L 56.773438 105.910156 L 56.757812 105.910156 C 38.753906 105.910156 24.144531 91.304688 24.144531 73.300781 L 24.144531 19.796875 L 24.15625 19.796875 C 42.160156 19.796875 56.773438 34.421875 56.773438 52.429688 Z M 56.773438 52.429688 "/></g><g clip-rule="nonzero" clip-path="url(#6469507145)"><path style=" stroke:none;fill-rule:nonzero;fill:#51b37f;fill-opacity:1;" d="M 127.367188 144.070312 L 80.488281 118.34375 C 69.308594 112.207031 63.300781 100.46875 63.742188 88.535156 L 63.742188 73.753906 C 62.421875 61.09375 68.628906 48.28125 80.488281 41.773438 L 127.367188 16.050781 C 136.03125 31.835938 130.257812 51.652344 114.472656 60.316406 L 78.496094 80.0625 L 114.472656 99.804688 C 130.257812 108.464844 136.03125 128.285156 127.367188 144.070312 Z M 127.367188 144.070312 "/></g><g clip-rule="nonzero" clip-path="url(#00218eb070)"><path style=" stroke:none;fill-rule:nonzero;fill:#51b37f;fill-opacity:1;" d="M 57.210938 127.578125 C 57.210938 128.121094 57.183594 128.660156 57.132812 129.203125 C 57.078125 129.742188 57 130.277344 56.894531 130.808594 C 56.789062 131.34375 56.65625 131.867188 56.5 132.386719 C 56.339844 132.90625 56.160156 133.417969 55.949219 133.917969 C 55.742188 134.417969 55.511719 134.910156 55.253906 135.386719 C 55 135.867188 54.722656 136.332031 54.417969 136.78125 C 54.117188 137.234375 53.796875 137.667969 53.449219 138.089844 C 53.105469 138.507812 52.742188 138.910156 52.359375 139.292969 C 51.976562 139.675781 51.574219 140.039062 51.15625 140.386719 C 50.734375 140.730469 50.300781 141.050781 49.847656 141.351562 C 49.398438 141.65625 48.933594 141.933594 48.453125 142.1875 C 47.976562 142.445312 47.484375 142.675781 46.984375 142.882812 C 46.484375 143.09375 45.972656 143.273438 45.453125 143.433594 C 44.933594 143.589844 44.40625 143.722656 43.875 143.828125 C 43.34375 143.933594 42.808594 144.011719 42.269531 144.066406 C 41.726562 144.117188 41.1875 144.144531 40.644531 144.144531 C 40.101562 144.144531 39.558594 144.117188 39.019531 144.066406 C 38.480469 144.011719 37.945312 143.933594 37.410156 143.828125 C 36.878906 143.722656 36.351562 143.589844 35.835938 143.433594 C 35.316406 143.273438 34.804688 143.09375 34.304688 142.882812 C 33.800781 142.675781 33.3125 142.445312 32.832031 142.1875 C 32.355469 141.933594 31.890625 141.65625 31.4375 141.351562 C 30.988281 141.050781 30.550781 140.730469 30.132812 140.386719 C 29.714844 140.039062 29.3125 139.675781 28.929688 139.292969 C 28.542969 138.910156 28.179688 138.507812 27.835938 138.089844 C 27.492188 137.667969 27.167969 137.234375 26.867188 136.78125 C 26.566406 136.332031 26.289062 135.867188 26.03125 135.386719 C 25.777344 134.910156 25.542969 134.417969 25.335938 133.917969 C 25.128906 133.417969 24.945312 132.90625 24.789062 132.386719 C 24.632812 131.867188 24.5 131.34375 24.394531 130.808594 C 24.289062 130.277344 24.207031 129.742188 24.15625 129.203125 C 24.101562 128.660156 24.074219 128.121094 24.074219 127.578125 C 24.074219 127.035156 24.101562 126.492188 24.15625 125.953125 C 24.207031 125.414062 24.289062 124.878906 24.394531 124.34375 C 24.5 123.8125 24.632812 123.289062 24.789062 122.769531 C 24.945312 122.25 25.128906 121.738281 25.335938 121.238281 C 25.542969 120.734375 25.777344 120.246094 26.03125 119.765625 C 26.289062 119.289062 26.566406 118.824219 26.867188 118.371094 C 27.167969 117.921875 27.492188 117.484375 27.835938 117.066406 C 28.179688 116.648438 28.542969 116.246094 28.929688 115.863281 C 29.3125 115.476562 29.714844 115.113281 30.132812 114.769531 C 30.550781 114.425781 30.988281 114.101562 31.4375 113.800781 C 31.890625 113.5 32.355469 113.222656 32.832031 112.964844 C 33.3125 112.710938 33.800781 112.476562 34.304688 112.269531 C 34.804688 112.0625 35.316406 111.878906 35.835938 111.722656 C 36.351562 111.566406 36.878906 111.433594 37.410156 111.328125 C 37.945312 111.222656 38.480469 111.140625 39.019531 111.089844 C 39.558594 111.035156 40.101562 111.007812 40.644531 111.007812 C 41.1875 111.007812 41.726562 111.035156 42.269531 111.089844 C 42.808594 111.140625 43.34375 111.222656 43.875 111.328125 C 44.40625 111.433594 44.933594 111.566406 45.453125 111.722656 C 45.972656 111.878906 46.484375 112.0625 46.984375 112.269531 C 47.484375 112.476562 47.976562 112.710938 48.453125 112.964844 C 48.933594 113.222656 49.398438 113.5 49.847656 113.800781 C 50.300781 114.101562 50.734375 114.425781 51.15625 114.769531 C 51.574219 115.113281 51.976562 115.476562 52.359375 115.863281 C 52.742188 116.246094 53.105469 116.648438 53.449219 117.066406 C 53.796875 117.484375 54.117188 117.921875 54.417969 118.371094 C 54.722656 118.824219 55 119.289062 55.253906 119.765625 C 55.511719 120.246094 55.742188 120.734375 55.949219 121.238281 C 56.160156 121.738281 56.339844 122.25 56.5 122.769531 C 56.65625 123.289062 56.789062 123.8125 56.894531 124.34375 C 57 124.878906 57.078125 125.414062 57.132812 125.953125 C 57.183594 126.492188 57.210938 127.035156 57.210938 127.578125 Z M 57.210938 127.578125 "/></g></g></svg>