<svg xmlns="http://www.w3.org/2000/svg" xmlns:xlink="http://www.w3.org/1999/xlink" width="215" zoomAndPan="magnify" viewBox="0 0 161.25 161.249997" height="215" preserveAspectRatio="xMidYMid meet" version="1.2"><defs><clipPath id="832aa4dc0e"><path d="M 0 0 L 160.503906 0 L 160.503906 160.503906 L 0 160.503906 Z M 0 0 "/></clipPath><clipPath id="4117773e05"><path d="M 80.25 0 C 35.929688 0 0 35.929688 0 80.25 C 0 124.574219 35.929688 160.503906 80.25 160.503906 C 124.574219 160.503906 160.503906 124.574219 160.503906 80.25 C 160.503906 35.929688 124.574219 0 80.25 0 Z M 80.25 0 "/></clipPath><clipPath id="968ff18762"><path d="M 29.917969 50 L 47 50 L 47 93 L 29.917969 93 Z M 29.917969 50 "/></clipPath><clipPath id="1f2492fe6a"><path d="M 49 48.429688 L 84 48.429688 L 84 111.886719 L 49 111.886719 Z M 49 48.429688 "/></clipPath><clipPath id="92e37f234f"><path d="M 29.917969 95.496094 L 46.34375 95.496094 L 46.34375 111.921875 L 29.917969 111.921875 Z M 29.917969 95.496094 "/></clipPath><clipPath id="fc00af646d"><path d="M 85.605469 64.761719 L 106.507812 64.761719 L 106.507812 85.664062 L 85.605469 85.664062 Z M 85.605469 64.761719 "/></clipPath><clipPath id="de767abe2c"><path d="M 90.78125 69.9375 L 101.230469 69.9375 L 101.230469 80.386719 L 90.78125 80.386719 Z M 90.78125 69.9375 "/></clipPath><clipPath id="55edd1465f"><path d="M 109.710938 61.484375 L 137 61.484375 L 137 89 L 109.710938 89 Z M 109.710938 61.484375 "/></clipPath><clipPath id="80270f6736"><path d="M 116.527344 68.300781 L 129.964844 68.300781 L 129.964844 81.738281 L 116.527344 81.738281 Z M 116.527344 68.300781 "/></clipPath></defs><g id="67ed3c3a4c"><g clip-rule="nonzero" clip-path="url(#832aa4dc0e)"><g clip-rule="nonzero" clip-path="url(#4117773e05)"><path style=" stroke:none;fill-rule:nonzero;fill:#51b37f;fill-opacity:1;" d="M 0 0 L 160.503906 0 L 160.503906 160.503906 L 0 160.503906 Z M 0 0 "/></g></g><g clip-rule="nonzero" clip-path="url(#968ff18762)"><path style=" stroke:none;fill-rule:nonzero;fill:#fcfcfc;fill-opacity:1;" d="M 46.125 66.460938 L 46.125 92.96875 L 46.117188 92.96875 C 37.191406 92.96875 29.953125 85.730469 29.953125 76.804688 L 29.953125 50.289062 L 29.960938 50.289062 C 38.882812 50.289062 46.125 57.535156 46.125 66.460938 Z M 46.125 66.460938 "/></g><g clip-rule="nonzero" clip-path="url(#1f2492fe6a)"><path style=" stroke:none;fill-rule:nonzero;fill:#fcfcfc;fill-opacity:1;" d="M 81.113281 111.882812 L 57.878906 99.132812 C 52.335938 96.089844 49.359375 90.273438 49.578125 84.355469 L 49.578125 77.03125 C 48.925781 70.757812 52 64.40625 57.878906 61.179688 L 81.113281 48.429688 C 85.40625 56.253906 82.546875 66.078125 74.722656 70.371094 L 56.890625 80.15625 L 74.722656 89.941406 C 82.546875 94.234375 85.40625 104.058594 81.113281 111.882812 Z M 81.113281 111.882812 "/></g><g clip-rule="nonzero" clip-path="url(#92e37f234f)"><path style=" stroke:none;fill-rule:nonzero;fill:#fcfcfc;fill-opacity:1;" d="M 46.34375 103.707031 C 46.34375 104.246094 46.289062 104.78125 46.183594 105.308594 C 46.078125 105.839844 45.921875 106.351562 45.71875 106.851562 C 45.511719 107.347656 45.257812 107.820312 44.957031 108.269531 C 44.660156 108.71875 44.320312 109.132812 43.9375 109.515625 C 43.554688 109.894531 43.140625 110.238281 42.691406 110.535156 C 42.246094 110.835938 41.769531 111.089844 41.273438 111.292969 C 40.773438 111.5 40.261719 111.65625 39.734375 111.761719 C 39.203125 111.867188 38.667969 111.921875 38.128906 111.921875 C 37.589844 111.921875 37.058594 111.867188 36.527344 111.761719 C 36 111.65625 35.484375 111.5 34.988281 111.292969 C 34.488281 111.089844 34.015625 110.835938 33.566406 110.535156 C 33.121094 110.238281 32.707031 109.894531 32.324219 109.515625 C 31.941406 109.132812 31.601562 108.71875 31.300781 108.269531 C 31.003906 107.820312 30.75 107.347656 30.542969 106.851562 C 30.335938 106.351562 30.183594 105.839844 30.078125 105.308594 C 29.972656 104.78125 29.917969 104.246094 29.917969 103.707031 C 29.917969 103.167969 29.972656 102.636719 30.078125 102.105469 C 30.183594 101.578125 30.335938 101.0625 30.542969 100.566406 C 30.75 100.066406 31.003906 99.59375 31.300781 99.144531 C 31.601562 98.699219 31.941406 98.28125 32.324219 97.902344 C 32.707031 97.519531 33.121094 97.179688 33.566406 96.878906 C 34.015625 96.582031 34.488281 96.328125 34.988281 96.121094 C 35.484375 95.914062 36 95.757812 36.527344 95.652344 C 37.058594 95.550781 37.589844 95.496094 38.128906 95.496094 C 38.667969 95.496094 39.203125 95.550781 39.734375 95.652344 C 40.261719 95.757812 40.773438 95.914062 41.273438 96.121094 C 41.769531 96.328125 42.246094 96.582031 42.691406 96.878906 C 43.140625 97.179688 43.554688 97.519531 43.9375 97.902344 C 44.320312 98.28125 44.660156 98.699219 44.957031 99.144531 C 45.257812 99.59375 45.511719 100.066406 45.71875 100.566406 C 45.921875 101.0625 46.078125 101.578125 46.183594 102.105469 C 46.289062 102.636719 46.34375 103.167969 46.34375 103.707031 Z M 46.34375 103.707031 "/></g><g clip-rule="nonzero" clip-path="url(#fc00af646d)"><path style=" stroke:none;fill-rule:nonzero;fill:#fcfcfc;fill-opacity:1;" d="M 106.296875 75.105469 C 106.296875 75.785156 106.230469 76.460938 106.097656 77.125 C 105.964844 77.792969 105.769531 78.4375 105.511719 79.066406 C 105.25 79.695312 104.929688 80.289062 104.554688 80.855469 C 104.175781 81.421875 103.746094 81.941406 103.265625 82.421875 C 102.785156 82.902344 102.265625 83.332031 101.699219 83.710938 C 101.132812 84.085938 100.539062 84.40625 99.910156 84.667969 C 99.28125 84.925781 98.636719 85.121094 97.96875 85.253906 C 97.304688 85.386719 96.628906 85.453125 95.953125 85.453125 C 95.273438 85.453125 94.597656 85.386719 93.933594 85.253906 C 93.265625 85.121094 92.621094 84.925781 91.992188 84.667969 C 91.363281 84.40625 90.769531 84.085938 90.203125 83.710938 C 89.636719 83.332031 89.117188 82.902344 88.636719 82.421875 C 88.15625 81.941406 87.726562 81.421875 87.347656 80.855469 C 86.972656 80.289062 86.652344 79.695312 86.390625 79.066406 C 86.132812 78.4375 85.9375 77.792969 85.804688 77.125 C 85.671875 76.460938 85.605469 75.785156 85.605469 75.105469 C 85.605469 74.429688 85.671875 73.753906 85.804688 73.089844 C 85.9375 72.421875 86.132812 71.777344 86.390625 71.148438 C 86.652344 70.519531 86.972656 69.925781 87.347656 69.359375 C 87.726562 68.792969 88.15625 68.273438 88.636719 67.792969 C 89.117188 67.3125 89.636719 66.882812 90.203125 66.503906 C 90.769531 66.128906 91.363281 65.808594 91.992188 65.546875 C 92.621094 65.289062 93.265625 65.09375 93.933594 64.960938 C 94.597656 64.828125 95.273438 64.761719 95.953125 64.761719 C 96.628906 64.761719 97.304688 64.828125 97.96875 64.960938 C 98.636719 65.09375 99.28125 65.289062 99.910156 65.546875 C 100.539062 65.808594 101.132812 66.128906 101.699219 66.503906 C 102.265625 66.882812 102.785156 67.3125 103.265625 67.792969 C 103.746094 68.273438 104.175781 68.792969 104.554688 69.359375 C 104.929688 69.925781 105.25 70.519531 105.511719 71.148438 C 105.769531 71.777344 105.964844 72.421875 106.097656 73.089844 C 106.230469 73.753906 106.296875 74.429688 106.296875 75.105469 Z M 106.296875 75.105469 "/></g><g clip-rule="nonzero" clip-path="url(#de767abe2c)"><path style=" stroke:none;fill-rule:nonzero;fill:#51b37f;fill-opacity:1;" d="M 101.128906 75.109375 C 101.128906 75.449219 101.09375 75.785156 101.027344 76.121094 C 100.960938 76.453125 100.863281 76.777344 100.734375 77.089844 C 100.601562 77.402344 100.445312 77.703125 100.253906 77.984375 C 100.066406 78.265625 99.851562 78.527344 99.613281 78.769531 C 99.371094 79.007812 99.109375 79.222656 98.828125 79.410156 C 98.546875 79.601562 98.246094 79.757812 97.933594 79.890625 C 97.621094 80.019531 97.296875 80.117188 96.964844 80.183594 C 96.628906 80.25 96.292969 80.285156 95.953125 80.285156 C 95.613281 80.285156 95.277344 80.25 94.945312 80.183594 C 94.613281 80.117188 94.289062 80.019531 93.972656 79.890625 C 93.660156 79.757812 93.363281 79.601562 93.078125 79.410156 C 92.796875 79.222656 92.535156 79.007812 92.296875 78.769531 C 92.054688 78.527344 91.839844 78.265625 91.652344 77.984375 C 91.464844 77.703125 91.304688 77.402344 91.175781 77.089844 C 91.042969 76.777344 90.945312 76.453125 90.878906 76.121094 C 90.8125 75.785156 90.78125 75.449219 90.78125 75.109375 C 90.78125 74.769531 90.8125 74.433594 90.878906 74.101562 C 90.945312 73.769531 91.042969 73.445312 91.175781 73.128906 C 91.304688 72.816406 91.464844 72.519531 91.652344 72.234375 C 91.839844 71.953125 92.054688 71.691406 92.296875 71.453125 C 92.535156 71.210938 92.796875 70.996094 93.078125 70.808594 C 93.363281 70.621094 93.660156 70.460938 93.972656 70.332031 C 94.289062 70.199219 94.613281 70.101562 94.945312 70.035156 C 95.277344 69.96875 95.613281 69.9375 95.953125 69.9375 C 96.292969 69.9375 96.628906 69.96875 96.964844 70.035156 C 97.296875 70.101562 97.621094 70.199219 97.933594 70.332031 C 98.246094 70.460938 98.546875 70.621094 98.828125 70.808594 C 99.109375 70.996094 99.371094 71.210938 99.613281 71.453125 C 99.851562 71.691406 100.066406 71.953125 100.253906 72.234375 C 100.445312 72.519531 100.601562 72.816406 100.734375 73.128906 C 100.863281 73.445312 100.960938 73.769531 101.027344 74.101562 C 101.09375 74.433594 101.128906 74.769531 101.128906 75.109375 Z M 101.128906 75.109375 "/></g><g clip-rule="nonzero" clip-path="url(#55edd1465f)"><path style=" stroke:none;fill-rule:nonzero;fill:#fcfcfc;fill-opacity:1;" d="M 136.960938 75.109375 C 136.960938 76.003906 136.871094 76.890625 136.699219 77.769531 C 136.523438 78.644531 136.265625 79.496094 135.921875 80.324219 C 135.582031 81.148438 135.160156 81.933594 134.664062 82.679688 C 134.167969 83.421875 133.601562 84.109375 132.96875 84.742188 C 132.335938 85.375 131.648438 85.941406 130.90625 86.4375 C 130.160156 86.933594 129.375 87.355469 128.550781 87.695312 C 127.722656 88.039062 126.871094 88.296875 125.992188 88.472656 C 125.117188 88.648438 124.230469 88.734375 123.335938 88.734375 C 122.441406 88.734375 121.554688 88.648438 120.679688 88.472656 C 119.800781 88.296875 118.949219 88.039062 118.121094 87.695312 C 117.296875 87.355469 116.511719 86.933594 115.765625 86.4375 C 115.023438 85.941406 114.335938 85.375 113.703125 84.742188 C 113.070312 84.109375 112.503906 83.421875 112.007812 82.679688 C 111.511719 81.933594 111.089844 81.148438 110.75 80.324219 C 110.40625 79.496094 110.148438 78.644531 109.972656 77.769531 C 109.800781 76.890625 109.710938 76.003906 109.710938 75.109375 C 109.710938 74.214844 109.800781 73.328125 109.972656 72.453125 C 110.148438 71.574219 110.40625 70.722656 110.75 69.894531 C 111.089844 69.070312 111.511719 68.285156 112.007812 67.539062 C 112.503906 66.796875 113.070312 66.109375 113.703125 65.476562 C 114.335938 64.84375 115.023438 64.277344 115.765625 63.78125 C 116.511719 63.285156 117.296875 62.867188 118.121094 62.523438 C 118.949219 62.179688 119.800781 61.921875 120.679688 61.746094 C 121.554688 61.574219 122.441406 61.484375 123.335938 61.484375 C 124.230469 61.484375 125.117188 61.574219 125.992188 61.746094 C 126.871094 61.921875 127.722656 62.179688 128.550781 62.523438 C 129.375 62.867188 130.160156 63.285156 130.90625 63.78125 C 131.648438 64.277344 132.335938 64.84375 132.96875 65.476562 C 133.601562 66.109375 134.167969 66.796875 134.664062 67.539062 C 135.160156 68.285156 135.582031 69.070312 135.921875 69.894531 C 136.265625 70.722656 136.523438 71.574219 136.699219 72.453125 C 136.871094 73.328125 136.960938 74.214844 136.960938 75.109375 Z M 136.960938 75.109375 "/></g><g clip-rule="nonzero" clip-path="url(#80270f6736)"><path style=" stroke:none;fill-rule:nonzero;fill:#51b37f;fill-opacity:1;" d="M 129.964844 75.019531 C 129.964844 75.460938 129.921875 75.894531 129.832031 76.328125 C 129.746094 76.761719 129.621094 77.183594 129.453125 77.589844 C 129.28125 77.996094 129.074219 78.382812 128.832031 78.75 C 128.585938 79.117188 128.308594 79.457031 127.996094 79.769531 C 127.683594 80.082031 127.34375 80.359375 126.976562 80.605469 C 126.609375 80.851562 126.222656 81.054688 125.816406 81.226562 C 125.40625 81.394531 124.988281 81.523438 124.554688 81.609375 C 124.121094 81.695312 123.683594 81.738281 123.246094 81.738281 C 122.804688 81.738281 122.367188 81.695312 121.933594 81.609375 C 121.5 81.523438 121.082031 81.394531 120.671875 81.226562 C 120.265625 81.054688 119.878906 80.851562 119.511719 80.605469 C 119.144531 80.359375 118.804688 80.082031 118.492188 79.769531 C 118.179688 79.457031 117.902344 79.117188 117.65625 78.75 C 117.414062 78.382812 117.207031 77.996094 117.035156 77.589844 C 116.867188 77.183594 116.742188 76.761719 116.65625 76.328125 C 116.570312 75.894531 116.527344 75.460938 116.527344 75.019531 C 116.527344 74.578125 116.570312 74.140625 116.65625 73.707031 C 116.742188 73.273438 116.867188 72.855469 117.035156 72.445312 C 117.207031 72.039062 117.414062 71.652344 117.65625 71.285156 C 117.902344 70.917969 118.179688 70.578125 118.492188 70.265625 C 118.804688 69.957031 119.144531 69.675781 119.511719 69.433594 C 119.878906 69.1875 120.265625 68.980469 120.671875 68.8125 C 121.082031 68.640625 121.5 68.515625 121.933594 68.429688 C 122.367188 68.34375 122.804688 68.300781 123.246094 68.300781 C 123.683594 68.300781 124.121094 68.34375 124.554688 68.429688 C 124.988281 68.515625 125.40625 68.640625 125.816406 68.8125 C 126.222656 68.980469 126.609375 69.1875 126.976562 69.433594 C 127.34375 69.675781 127.683594 69.957031 127.996094 70.265625 C 128.308594 70.578125 128.585938 70.917969 128.832031 71.285156 C 129.074219 71.652344 129.28125 72.039062 129.453125 72.445312 C 129.621094 72.855469 129.746094 73.273438 129.832031 73.707031 C 129.921875 74.140625 129.964844 74.578125 129.964844 75.019531 Z M 129.964844 75.019531 "/></g><path style="fill:none;stroke-width:10;stroke-linecap:round;stroke-linejoin:miter;stroke:#fcfcfc;stroke-opacity:1;stroke-miterlimit:4;" d="M 4.997935 5.000259 L 63.801427 5.000259 " transform="matrix(0.746528,0,0,0.746528,85.604841,91.552324)"/></g></svg>