<svg xmlns="http://www.w3.org/2000/svg" xmlns:xlink="http://www.w3.org/1999/xlink" width="215" zoomAndPan="magnify" viewBox="0 0 161.25 161.249997" height="215" preserveAspectRatio="xMidYMid meet" version="1.2"><defs><clipPath id="eb6a3355c8"><path d="M 0 0 L 160.503906 0 L 160.503906 160.503906 L 0 160.503906 Z M 0 0 "/></clipPath><clipPath id="c776d68b7b"><path d="M 80.25 0 C 35.929688 0 0 35.929688 0 80.25 C 0 124.574219 35.929688 160.503906 80.25 160.503906 C 124.574219 160.503906 160.503906 124.574219 160.503906 80.25 C 160.503906 35.929688 124.574219 0 80.25 0 Z M 80.25 0 "/></clipPath><clipPath id="8091bfdb9d"><path d="M 33.652344 30 L 61 30 L 61 102 L 33.652344 102 Z M 33.652344 30 "/></clipPath><clipPath id="d7ee4351c4"><path d="M 66 26.996094 L 123 26.996094 L 123 133.195312 L 66 133.195312 Z M 66 26.996094 "/></clipPath><clipPath id="d400f89301"><path d="M 33.652344 105.765625 L 61.140625 105.765625 L 61.140625 133.253906 L 33.652344 133.253906 Z M 33.652344 105.765625 "/></clipPath></defs><g id="01fbee489a"><g clip-rule="nonzero" clip-path="url(#eb6a3355c8)"><g clip-rule="nonzero" clip-path="url(#c776d68b7b)"><path style=" stroke:none;fill-rule:nonzero;fill:#51b37f;fill-opacity:1;" d="M 0 0 L 160.503906 0 L 160.503906 160.503906 L 0 160.503906 Z M 0 0 "/></g></g><g clip-rule="nonzero" clip-path="url(#8091bfdb9d)"><path style=" stroke:none;fill-rule:nonzero;fill:#fcfcfc;fill-opacity:1;" d="M 60.773438 57.171875 L 60.773438 101.535156 L 60.765625 101.535156 C 45.828125 101.535156 33.707031 89.421875 33.707031 74.484375 L 33.707031 30.101562 L 33.71875 30.101562 C 48.65625 30.101562 60.773438 42.234375 60.773438 57.171875 Z M 60.773438 57.171875 "/></g><g clip-rule="nonzero" clip-path="url(#d7ee4351c4)"><path style=" stroke:none;fill-rule:nonzero;fill:#fcfcfc;fill-opacity:1;" d="M 119.335938 133.191406 L 80.449219 111.851562 C 71.171875 106.757812 66.191406 97.023438 66.558594 87.121094 L 66.558594 74.863281 C 65.460938 64.359375 70.609375 53.734375 80.449219 48.335938 L 119.335938 26.996094 C 126.519531 40.089844 121.730469 56.527344 108.640625 63.714844 L 78.792969 80.09375 L 108.640625 96.472656 C 121.730469 103.65625 126.519531 120.097656 119.335938 133.191406 Z M 119.335938 133.191406 "/></g><g clip-rule="nonzero" clip-path="url(#d400f89301)"><path style=" stroke:none;fill-rule:nonzero;fill:#fcfcfc;fill-opacity:1;" d="M 61.140625 119.507812 C 61.140625 120.410156 61.050781 121.304688 60.875 122.191406 C 60.699219 123.074219 60.4375 123.933594 60.09375 124.769531 C 59.746094 125.601562 59.324219 126.394531 58.824219 127.144531 C 58.320312 127.894531 57.753906 128.589844 57.113281 129.226562 C 56.476562 129.867188 55.78125 130.4375 55.03125 130.9375 C 54.28125 131.4375 53.488281 131.863281 52.65625 132.207031 C 51.820312 132.550781 50.960938 132.8125 50.078125 132.988281 C 49.191406 133.164062 48.296875 133.253906 47.394531 133.253906 C 46.492188 133.253906 45.601562 133.164062 44.714844 132.988281 C 43.828125 132.8125 42.96875 132.550781 42.136719 132.207031 C 41.300781 131.863281 40.511719 131.4375 39.761719 130.9375 C 39.011719 130.4375 38.316406 129.867188 37.675781 129.226562 C 37.039062 128.589844 36.46875 127.894531 35.96875 127.144531 C 35.46875 126.394531 35.042969 125.601562 34.699219 124.769531 C 34.351562 123.933594 34.09375 123.074219 33.917969 122.191406 C 33.738281 121.304688 33.652344 120.410156 33.652344 119.507812 C 33.652344 118.605469 33.738281 117.714844 33.917969 116.828125 C 34.09375 115.941406 34.351562 115.082031 34.699219 114.25 C 35.042969 113.417969 35.46875 112.625 35.96875 111.875 C 36.46875 111.125 37.039062 110.429688 37.675781 109.792969 C 38.316406 109.152344 39.011719 108.582031 39.761719 108.082031 C 40.511719 107.582031 41.300781 107.15625 42.136719 106.8125 C 42.96875 106.464844 43.828125 106.207031 44.714844 106.03125 C 45.601562 105.855469 46.492188 105.765625 47.394531 105.765625 C 48.296875 105.765625 49.191406 105.855469 50.078125 106.03125 C 50.960938 106.207031 51.820312 106.464844 52.65625 106.8125 C 53.488281 107.15625 54.28125 107.582031 55.03125 108.082031 C 55.78125 108.582031 56.476562 109.152344 57.113281 109.792969 C 57.753906 110.429688 58.320312 111.125 58.824219 111.875 C 59.324219 112.625 59.746094 113.417969 60.09375 114.25 C 60.4375 115.082031 60.699219 115.941406 60.875 116.828125 C 61.050781 117.714844 61.140625 118.605469 61.140625 119.507812 Z M 61.140625 119.507812 "/></g></g></svg>